<svg width="25" height="25" viewBox="0 0 25 25" xmlns="http://www.w3.org/2000/svg"><title>Untitled 5</title><path d="M23.438 10.938h-1.563c-.055 0-.1.026-.155.03-.237-1.44-.795-2.768-1.61-3.91.038-.03.087-.044.124-.08L21.34 5.87c.61-.61.61-1.6 0-2.21-.612-.61-1.6-.61-2.21 0l-1.107 1.104c-.035.036-.05.086-.082.125-1.138-.817-2.467-1.373-3.91-1.61.006-.055.033-.1.033-.155V1.562C14.063.7 13.363 0 12.5 0c-.864 0-1.563.7-1.563 1.563v1.562c0 .055.027.1.032.155-1.443.237-2.772.793-3.91 1.61-.033-.038-.047-.087-.083-.124L5.872 3.66c-.61-.61-1.6-.61-2.21 0-.61.612-.61 1.6 0 2.21l1.105 1.105c.036.038.083.052.124.084-.817 1.14-1.373 2.467-1.61 3.91-.055-.006-.1-.033-.155-.033H1.562C.7 10.938 0 11.637 0 12.5s.698 1.563 1.563 1.563h1.562c.055 0 .1-.026.155-.032.237 1.443.795 2.77 1.61 3.91-.038.033-.087.046-.123.083L3.66 19.128c-.608.61-.608 1.6 0 2.21.612.61 1.6.61 2.212 0l1.105-1.105c.035-.036.05-.086.082-.125 1.138.817 2.467 1.373 3.91 1.612-.006.055-.033.1-.033.155v1.563c0 .864.7 1.562 1.563 1.562.864 0 1.563-.698 1.563-1.563v-1.562c0-.055-.027-.1-.032-.155 1.443-.24 2.77-.795 3.91-1.612.033.04.046.09.083.125l1.107 1.104c.61.61 1.598.61 2.21 0 .61-.61.61-1.598 0-2.21l-1.106-1.104c-.037-.035-.086-.048-.125-.082.815-1.14 1.373-2.467 1.61-3.91.055.008.1.033.155.033h1.563c.864 0 1.562-.7 1.562-1.563s-.698-1.563-1.563-1.563zM12.5 18.75c-3.452 0-6.25-2.798-6.25-6.25s2.798-6.25 6.25-6.25 6.25 2.798 6.25 6.25-2.798 6.25-6.25 6.25z" fill="#F0F3F6"/></svg>